REM DIRINDEX 1\2\4,1\2\5,1\3\6,1\3\7,1\3\8
REM DIRNAME folder01,folder02,folder03,folder04,folder05,folder06,folder07,folder08
TITLE ""
FILE "LV3_051_WORDS.mp3" MP3
  TRACK 01 AUDIO
    TITLE "0:"
    INDEX 01 00:00:00
  TRACK 02 AUDIO
    TITLE "6:cjc094_1829"
    INDEX 01 00:00:01
  TRACK 03 AUDIO
    TITLE "0:"
    INDEX 01 00:02:16
  TRACK 04 AUDIO
    TITLE "7:cjc094_1830"
    INDEX 01 00:02:71
  TRACK 05 AUDIO
    TITLE "0:"
    INDEX 01 00:04:03
  TRACK 06 AUDIO
    TITLE "8:cjc094_1831"
    INDEX 01 00:04:23
  TRACK 07 AUDIO
    TITLE "0:"
    INDEX 01 00:05:69
  TRACK 08 AUDIO
    TITLE "7:cjc094_1832"
    INDEX 01 00:06:33
  TRACK 09 AUDIO
    TITLE "0:"
    INDEX 01 00:07:33
  TRACK 10 AUDIO
    TITLE "8:cjc094_1833"
    INDEX 01 00:07:54
  TRACK 11 AUDIO
    TITLE "0:"
    INDEX 01 00:10:06
  TRACK 12 AUDIO
    TITLE "7:cjc094_1834"
    INDEX 01 00:10:51
  TRACK 13 AUDIO
    TITLE "0:"
    INDEX 01 00:11:33
  TRACK 14 AUDIO
    TITLE "8:cjc094_1835"
    INDEX 01 00:11:64
  TRACK 15 AUDIO
    TITLE "0:"
    INDEX 01 00:15:54
  TRACK 16 AUDIO
    TITLE "7:cjc094_1836"
    INDEX 01 00:16:26
  TRACK 17 AUDIO
    TITLE "0:"
    INDEX 01 00:17:57
  TRACK 18 AUDIO
    TITLE "8:cjc094_1837"
    INDEX 01 00:17:70
  TRACK 19 AUDIO
    TITLE "0:"
    INDEX 01 00:19:67
  TRACK 20 AUDIO
    TITLE "7:cjc094_1838"
    INDEX 01 00:20:43
  TRACK 21 AUDIO
    TITLE "0:"
    INDEX 01 00:22:07
  TRACK 22 AUDIO
    TITLE "8:cjc094_1839"
    INDEX 01 00:22:19
  TRACK 23 AUDIO
    TITLE "0:"
    INDEX 01 00:23:63
  TRACK 24 AUDIO
    TITLE "7:cjc094_1840"
    INDEX 01 00:24:35
  TRACK 25 AUDIO
    TITLE "0:"
    INDEX 01 00:25:33
  TRACK 26 AUDIO
    TITLE "8:cjc094_1841"
    INDEX 01 00:25:50
  TRACK 27 AUDIO
    TITLE "0:"
    INDEX 01 00:27:67
  TRACK 28 AUDIO
    TITLE "7:cjc094_1842"
    INDEX 01 00:28:41
  TRACK 29 AUDIO
    TITLE "0:"
    INDEX 01 00:29:33
  TRACK 30 AUDIO
    TITLE "8:cjc094_1843"
    INDEX 01 00:29:48
  TRACK 31 AUDIO
    TITLE "0:"
    INDEX 01 00:31:67
  TRACK 32 AUDIO
    TITLE "7:cjc094_1844"
    INDEX 01 00:32:41
  TRACK 33 AUDIO
    TITLE "0:"
    INDEX 01 00:33:42
  TRACK 34 AUDIO
    TITLE "8:cjc094_1845"
    INDEX 01 00:33:58
  TRACK 35 AUDIO
    TITLE "0:"
    INDEX 01 00:36:48
  TRACK 36 AUDIO
    TITLE "7:cjc094_1846"
    INDEX 01 00:37:28
  TRACK 37 AUDIO
    TITLE "0:"
    INDEX 01 00:38:37
  TRACK 38 AUDIO
    TITLE "8:cjc094_1847"
    INDEX 01 00:38:53
  TRACK 39 AUDIO
    TITLE "0:"
    INDEX 01 00:40:64
  TRACK 40 AUDIO
    TITLE "7:cjc094_1848"
    INDEX 01 00:41:38
  TRACK 41 AUDIO
    TITLE "0:"
    INDEX 01 00:42:51
  TRACK 42 AUDIO
    TITLE "8:cjc094_1849"
    INDEX 01 00:42:66
  TRACK 43 AUDIO
    TITLE "0:"
    INDEX 01 00:46:07
  TRACK 44 AUDIO
    TITLE "7:cjc094_1850"
    INDEX 01 00:46:60
  TRACK 45 AUDIO
    TITLE "0:"
    INDEX 01 00:47:60
  TRACK 46 AUDIO
    TITLE "8:cjc094_1851"
    INDEX 01 00:48:06
  TRACK 47 AUDIO
    TITLE "0:"
    INDEX 01 00:50:58
  TRACK 48 AUDIO
    TITLE "7:cjc094_1852"
    INDEX 01 00:51:36
  TRACK 49 AUDIO
    TITLE "0:"
    INDEX 01 00:52:39
  TRACK 50 AUDIO
    TITLE "8:cjc094_1853"
    INDEX 01 00:52:57
  TRACK 51 AUDIO
    TITLE "0:"
    INDEX 01 00:54:64
  TRACK 52 AUDIO
    TITLE "7:cjc094_1854"
    INDEX 01 00:55:46
  TRACK 53 AUDIO
    TITLE "0:"
    INDEX 01 00:56:45
  TRACK 54 AUDIO
    TITLE "8:cjc094_1855"
    INDEX 01 00:56:63
  TRACK 55 AUDIO
    TITLE "0:"
    INDEX 01 00:57:60
  TRACK 56 AUDIO
    TITLE "7:cjc094_1856"
    INDEX 01 00:58:38
  TRACK 57 AUDIO
    TITLE "0:"
    INDEX 01 00:59:39
  TRACK 58 AUDIO
    TITLE "8:cjc094_1857"
    INDEX 01 00:59:61
  TRACK 59 AUDIO
    TITLE "0:"
    INDEX 01 01:00:51
  TRACK 60 AUDIO
    TITLE "7:cjc094_1858"
    INDEX 01 01:01:29
  TRACK 61 AUDIO
    TITLE "0:"
    INDEX 01 01:02:30
  TRACK 62 AUDIO
    TITLE "8:cjc094_1859"
    INDEX 01 01:02:54
  TRACK 63 AUDIO
    TITLE "0:"
    INDEX 01 01:03:43
  TRACK 64 AUDIO
    TITLE "7:cjc094_1860"
    INDEX 01 01:04:23
  TRACK 65 AUDIO
    TITLE "0:"
    INDEX 01 01:05:26
  TRACK 66 AUDIO
    TITLE "8:cjc094_1861"
    INDEX 01 01:05:46
  TRACK 67 AUDIO
    TITLE "0:"
    INDEX 01 01:06:49
  TRACK 68 AUDIO
    TITLE "7:cjc094_1862"
    INDEX 01 01:07:25
  TRACK 69 AUDIO
    TITLE "0:"
    INDEX 01 01:08:36
  TRACK 70 AUDIO
    TITLE "8:cjc094_1863"
    INDEX 01 01:08:56
  TRACK 71 AUDIO
    TITLE "0:"
    INDEX 01 01:10:24
  TRACK 72 AUDIO
    TITLE "7:cjc094_1864"
    INDEX 01 01:10:71
  TRACK 73 AUDIO
    TITLE "0:"
    INDEX 01 01:11:70
  TRACK 74 AUDIO
    TITLE "8:cjc094_1865"
    INDEX 01 01:12:13
  TRACK 75 AUDIO
    TITLE "0:"
    INDEX 01 01:15:03
  TRACK 76 AUDIO
    TITLE "7:cjc094_1866"
    INDEX 01 01:15:58
  TRACK 77 AUDIO
    TITLE "0:"
    INDEX 01 01:16:52
  TRACK 78 AUDIO
    TITLE "8:cjc094_1867"
    INDEX 01 01:16:67
  TRACK 79 AUDIO
    TITLE "0:"
    INDEX 01 01:18:53
